<svg width="272" height="50" viewBox="0 0 272 50" fill="none" xmlns="http://www.w3.org/2000/svg">
<g clip-path="url(#clip0_5_28)">
<path d="M8.22798 41V8.27273H29.1939V13.2425H14.1566V22.1275H27.7557V27.0973H14.1566V41H8.22798ZM41.183 41.4954C39.6276 41.4954 38.2267 41.2184 36.9802 40.6644C35.7444 40.0998 34.7643 39.2688 34.0399 38.1715C33.3261 37.0742 32.9692 35.7212 32.9692 34.1126C32.9692 32.7276 33.2249 31.5824 33.7362 30.6768C34.2476 29.7713 34.9454 29.0469 35.8296 28.5036C36.7139 27.9602 37.71 27.5501 38.8179 27.2731C39.9365 26.9854 41.0924 26.7777 42.2856 26.6499C43.7238 26.5007 44.8904 26.3675 45.7852 26.2504C46.6801 26.1225 47.33 25.9308 47.7348 25.6751C48.1503 25.4087 48.358 24.9986 48.358 24.4446V24.3487C48.358 23.1449 48.0012 22.2127 47.2874 21.5522C46.5736 20.8917 45.5455 20.5614 44.2032 20.5614C42.7863 20.5614 41.6624 20.8704 40.8314 21.4883C40.0111 22.1062 39.4571 22.8359 39.1695 23.6776L33.7682 22.9105C34.1943 21.419 34.8975 20.1726 35.8776 19.1712C36.8577 18.1591 38.0562 17.4027 39.4731 16.902C40.89 16.3906 42.4561 16.1349 44.1713 16.1349C45.3538 16.1349 46.531 16.2734 47.7029 16.5504C48.8747 16.8274 49.9454 17.2855 50.9149 17.9247C51.8843 18.5533 52.662 19.4109 53.248 20.4975C53.8446 21.5842 54.1428 22.9425 54.1428 24.5724V41H48.5818V37.6282H48.39C48.0384 38.31 47.5431 38.9492 46.9039 39.5458C46.2753 40.1317 45.4816 40.6058 44.5228 40.968C43.5747 41.3196 42.4614 41.4954 41.183 41.4954ZM42.6851 37.2447C43.8463 37.2447 44.8531 37.0156 45.7053 36.5575C46.5576 36.0888 47.2128 35.4709 47.6709 34.7038C48.1396 33.9368 48.374 33.1005 48.374 32.195V29.3026C48.1929 29.4517 47.884 29.5902 47.4472 29.718C47.021 29.8459 46.5416 29.9577 46.009 30.0536C45.4763 30.1495 44.949 30.2347 44.4269 30.3093C43.9049 30.3839 43.4521 30.4478 43.0686 30.5011C42.2057 30.6183 41.4333 30.81 40.7515 31.0763C40.0697 31.3427 39.5317 31.7156 39.1375 32.195C38.7433 32.6637 38.5463 33.271 38.5463 34.0167C38.5463 35.082 38.9351 35.8864 39.7128 36.4297C40.4905 36.973 41.4813 37.2447 42.6851 37.2447ZM79.3595 22.9425L74.086 23.5178C73.9369 22.9851 73.6759 22.4844 73.303 22.0156C72.9408 21.5469 72.4507 21.1687 71.8328 20.881C71.2149 20.5934 70.4585 20.4496 69.5637 20.4496C68.3598 20.4496 67.3477 20.7106 66.5274 21.2326C65.7178 21.7546 65.3183 22.4311 65.3289 23.2621C65.3183 23.9759 65.5793 24.5565 66.1119 25.0039C66.6553 25.4513 67.5502 25.8189 68.7966 26.1065L72.9834 27.0014C75.3058 27.5021 77.0317 28.2958 78.161 29.3825C79.3009 30.4691 79.8762 31.8913 79.8868 33.6491C79.8762 35.1939 79.4234 36.5575 78.5285 37.7401C77.6443 38.9119 76.4138 39.8281 74.8371 40.4886C73.2604 41.1491 71.4493 41.4794 69.4039 41.4794C66.3996 41.4794 63.9813 40.8509 62.1489 39.5938C60.3165 38.326 59.2245 36.5629 58.873 34.3043L64.5139 33.761C64.7696 34.869 65.3129 35.7053 66.1439 36.2699C66.9749 36.8345 68.0562 37.1168 69.3879 37.1168C70.7622 37.1168 71.8648 36.8345 72.6958 36.2699C73.5374 35.7053 73.9582 35.0075 73.9582 34.1765C73.9582 33.4734 73.6865 32.8928 73.1432 32.4347C72.6105 31.9766 71.7796 31.625 70.6503 31.38L66.4635 30.5011C64.1091 30.011 62.3673 29.1854 61.238 28.0241C60.1088 26.8523 59.5494 25.3714 59.5601 23.5817C59.5494 22.0689 59.9596 20.7585 60.7906 19.6506C61.6322 18.532 62.7987 17.669 64.2902 17.0618C65.7923 16.4439 67.5235 16.1349 69.4838 16.1349C72.3602 16.1349 74.624 16.7475 76.2753 17.9727C77.9372 19.1978 78.9653 20.8544 79.3595 22.9425ZM90.4417 26.6179V41H84.6569V8.27273H90.3138V20.6254H90.6015C91.1768 19.2404 92.0663 18.1484 93.2702 17.3494C94.4846 16.5398 96.0294 16.1349 97.9044 16.1349C99.6089 16.1349 101.095 16.4918 102.363 17.2056C103.631 17.9194 104.611 18.9634 105.303 20.3377C106.006 21.712 106.358 23.3899 106.358 25.3714V41H100.573V26.2663C100.573 24.6151 100.147 23.3313 99.2947 22.4151C98.453 21.4883 97.2705 21.0249 95.7471 21.0249C94.7243 21.0249 93.8082 21.2486 92.9985 21.696C92.1995 22.1328 91.5709 22.7667 91.1128 23.5977C90.6654 24.4286 90.4417 25.4354 90.4417 26.6179ZM112.255 41V16.4545H118.039V41H112.255ZM115.163 12.9709C114.247 12.9709 113.458 12.6673 112.798 12.06C112.137 11.4421 111.807 10.7017 111.807 9.83878C111.807 8.9652 112.137 8.22479 112.798 7.61754C113.458 6.99964 114.247 6.6907 115.163 6.6907C116.09 6.6907 116.878 6.99964 117.528 7.61754C118.188 8.22479 118.519 8.9652 118.519 9.83878C118.519 10.7017 118.188 11.4421 117.528 12.06C116.878 12.6673 116.09 12.9709 115.163 12.9709ZM134.695 41.4794C132.298 41.4794 130.22 40.9521 128.462 39.8974C126.705 38.8427 125.341 37.3672 124.371 35.4709C123.413 33.5746 122.933 31.3587 122.933 28.8232C122.933 26.2876 123.413 24.0664 124.371 22.1594C125.341 20.2525 126.705 18.7717 128.462 17.717C130.22 16.6623 132.298 16.1349 134.695 16.1349C137.092 16.1349 139.169 16.6623 140.927 17.717C142.685 18.7717 144.043 20.2525 145.002 22.1594C145.971 24.0664 146.456 26.2876 146.456 28.8232C146.456 31.3587 145.971 33.5746 145.002 35.4709C144.043 37.3672 142.685 38.8427 140.927 39.8974C139.169 40.9521 137.092 41.4794 134.695 41.4794ZM134.727 36.8452C136.026 36.8452 137.113 36.4883 137.987 35.7745C138.86 35.0501 139.51 34.0806 139.936 32.8661C140.373 31.6516 140.591 30.2987 140.591 28.8072C140.591 27.305 140.373 25.9467 139.936 24.7322C139.51 23.5071 138.86 22.5323 137.987 21.8079C137.113 21.0835 136.026 20.7212 134.727 20.7212C133.395 20.7212 132.287 21.0835 131.403 21.8079C130.529 22.5323 129.874 23.5071 129.437 24.7322C129.011 25.9467 128.798 27.305 128.798 28.8072C128.798 30.2987 129.011 31.6516 129.437 32.8661C129.874 34.0806 130.529 35.0501 131.403 35.7745C132.287 36.4883 133.395 36.8452 134.727 36.8452ZM157.151 26.6179V41H151.366V16.4545H156.895V20.6254H157.183C157.747 19.2511 158.647 18.1591 159.883 17.3494C161.13 16.5398 162.669 16.1349 164.502 16.1349C166.195 16.1349 167.671 16.4972 168.928 17.2216C170.196 17.946 171.176 18.9954 171.868 20.3697C172.571 21.744 172.918 23.4112 172.907 25.3714V41H167.122V26.2663C167.122 24.6257 166.696 23.342 165.844 22.4151C165.002 21.4883 163.836 21.0249 162.344 21.0249C161.332 21.0249 160.432 21.2486 159.644 21.696C158.866 22.1328 158.253 22.7667 157.806 23.5977C157.369 24.4286 157.151 25.4354 157.151 26.6179Z" fill="white"/>
<path d="M232.858 8.27273H238.787V29.6541C238.787 31.9979 238.233 34.0593 237.125 35.8384C236.028 37.6175 234.483 39.0078 232.491 40.0092C230.499 41 228.171 41.4954 225.507 41.4954C222.833 41.4954 220.5 41 218.508 40.0092C216.516 39.0078 214.971 37.6175 213.874 35.8384C212.777 34.0593 212.228 31.9979 212.228 29.6541V8.27273H218.157V29.1587C218.157 30.5224 218.455 31.7369 219.051 32.8022C219.659 33.8675 220.511 34.7038 221.608 35.3111C222.706 35.9077 224.005 36.206 225.507 36.206C227.01 36.206 228.309 35.9077 229.407 35.3111C230.515 34.7038 231.367 33.8675 231.963 32.8022C232.56 31.7369 232.858 30.5224 232.858 29.1587V8.27273ZM264.375 22.9425L259.102 23.5178C258.953 22.9851 258.691 22.4844 258.319 22.0156C257.956 21.5469 257.466 21.1687 256.848 20.881C256.231 20.5934 255.474 20.4496 254.579 20.4496C253.375 20.4496 252.363 20.7106 251.543 21.2326C250.733 21.7546 250.334 22.4311 250.345 23.2621C250.334 23.9759 250.595 24.5565 251.128 25.0039C251.671 25.4513 252.566 25.8189 253.812 26.1065L257.999 27.0014C260.321 27.5021 262.047 28.2958 263.177 29.3825C264.316 30.4691 264.892 31.8913 264.902 33.6491C264.892 35.1939 264.439 36.5575 263.544 37.7401C262.66 38.9119 261.429 39.8281 259.853 40.4886C258.276 41.1491 256.465 41.4794 254.419 41.4794C251.415 41.4794 248.997 40.8509 247.165 39.5938C245.332 38.326 244.24 36.5629 243.889 34.3043L249.53 33.761C249.785 34.869 250.329 35.7053 251.16 36.2699C251.991 36.8345 253.072 37.1168 254.403 37.1168C255.778 37.1168 256.88 36.8345 257.711 36.2699C258.553 35.7053 258.974 35.0075 258.974 34.1765C258.974 33.4734 258.702 32.8928 258.159 32.4347C257.626 31.9766 256.795 31.625 255.666 31.38L251.479 30.5011C249.125 30.011 247.383 29.1854 246.254 28.0241C245.124 26.8523 244.565 25.3714 244.576 23.5817C244.565 22.0689 244.975 20.7585 245.806 19.6506C246.648 18.532 247.814 17.669 249.306 17.0618C250.808 16.4439 252.539 16.1349 254.499 16.1349C257.376 16.1349 259.64 16.7475 261.291 17.9727C262.953 19.1978 263.981 20.8544 264.375 22.9425Z" fill="white"/>
<path d="M205.772 41V8.27273H193.499C190.985 8.27273 188.876 8.70952 187.171 9.5831C185.456 10.4567 184.162 11.6818 183.288 13.2585C182.404 14.8246 181.962 16.6516 181.962 18.7397C181.962 20.8384 182.409 22.6602 183.304 24.2049C184.188 25.739 185.493 26.9268 187.219 27.7685C188.945 28.5994 191.065 29.0149 193.579 29.0149H202.32V24.093H194.378C192.908 24.093 191.704 23.8906 190.767 23.4858C189.829 23.0703 189.137 22.4684 188.689 21.68C188.231 20.881 188.002 19.9009 188.002 18.7397C188.002 17.5785 188.231 16.5877 188.689 15.7674C189.147 14.9364 189.845 14.3079 190.783 13.8817C191.72 13.445 192.929 13.2266 194.41 13.2266H199.843V41H205.772ZM188.865 26.1705L180.763 41H187.379L195.337 26.1705H188.865Z" fill="#EA3B2E"/>
</g>
<defs>
<clipPath id="clip0_5_28">
<rect width="272" height="50" fill="white"/>
</clipPath>
</defs>
</svg>
