<svg width="300" height="300" viewBox="0 0 300 300" fill="none" xmlns="http://www.w3.org/2000/svg">
<g clip-path="url(#clip0_4_19)">
<path d="M251.385 295V4.0909H142.294C119.946 4.0909 101.196 7.97348 86.044 15.7386C70.7978 23.5038 59.2921 34.3939 51.527 48.4091C43.6671 62.3295 39.7372 78.5701 39.7372 97.1307C39.7372 115.786 43.7145 131.979 51.669 145.71C59.5289 159.347 71.1293 169.905 86.4702 177.386C101.811 184.773 120.656 188.466 143.004 188.466H220.703V144.716H150.107C137.038 144.716 126.338 142.917 118.004 139.318C109.671 135.625 103.516 130.275 99.5384 123.267C95.4664 116.165 93.4304 107.453 93.4304 97.1307C93.4304 86.8087 95.4664 78.0019 99.5384 70.7102C103.61 63.3239 109.813 57.7367 118.146 53.9489C126.48 50.0663 137.228 48.125 150.391 48.125H198.686V295H251.385ZM101.101 163.182L29.0838 295H87.8906L158.629 163.182H101.101Z" fill="#EA3B2E"/>
</g>
<defs>
<clipPath id="clip0_4_19">
<rect width="300" height="300" fill="white"/>
</clipPath>
</defs>
</svg>
