<svg width="204" height="50" viewBox="0 0 204 50" fill="none" xmlns="http://www.w3.org/2000/svg">
<g clip-path="url(#clip0_23_72)">
<path d="M14.0532 40H8.99951C8.85303 40 8.77979 39.9268 8.77979 39.7803L8.86768 8.86475C8.86768 8.74756 8.92627 8.68896 9.04346 8.68896H23.4575C23.604 8.68896 23.6772 8.74756 23.6772 8.86475V13.9404C23.6772 14.0576 23.6187 14.1162 23.5015 14.1162H14.2729V21.1035H23.5015C23.6187 21.1035 23.6772 21.1768 23.6772 21.3232L23.7212 26.4209C23.7212 26.5381 23.6479 26.5967 23.5015 26.5967H14.2729V39.7803C14.2729 39.9268 14.1997 40 14.0532 40ZM24.4023 39.7803L29.9834 8.86475C30.0127 8.74756 30.0859 8.68896 30.2031 8.68896H36.729C36.8462 8.68896 36.9194 8.74756 36.9487 8.86475L42.3101 39.7803C42.3247 39.9268 42.2661 40 42.1343 40H37.1465C37 40 36.9194 39.9268 36.9048 39.7803L36.4214 36.4844H30.291L29.8076 39.7803C29.793 39.9268 29.7197 40 29.5879 40H24.5781C24.4609 40 24.4023 39.9268 24.4023 39.7803ZM33.2134 19.0381L31.1919 31.6724H35.5205L33.6748 19.0381L33.4111 17.3682L33.2134 19.0381ZM52.769 40.4395C51.1724 40.4395 49.7002 40.0293 48.3525 39.209C47.0195 38.3887 45.9502 37.2974 45.1445 35.9351C44.3535 34.5581 43.958 33.0493 43.958 31.4087V29.3433C43.958 29.1821 44.0312 29.1016 44.1777 29.1016H49.2314C49.3486 29.1016 49.4072 29.1821 49.4072 29.3433V31.4087C49.4072 32.3901 49.7368 33.2397 50.396 33.9575C51.0552 34.6606 51.8462 35.0122 52.769 35.0122C53.7065 35.0122 54.5049 34.6533 55.1641 33.9355C55.8232 33.2031 56.1528 32.3608 56.1528 31.4087C56.1528 30.3101 55.4351 29.3506 53.9995 28.5303C53.7651 28.3838 53.4575 28.208 53.0767 28.0029C52.7104 27.7832 52.271 27.5342 51.7583 27.2559C51.2456 26.9775 50.7476 26.7065 50.2642 26.4429C49.7808 26.1646 49.312 25.9009 48.8579 25.6519C47.2173 24.6851 45.9941 23.4766 45.1885 22.0264C44.3975 20.5615 44.002 18.9209 44.002 17.1045C44.002 15.4346 44.4121 13.9258 45.2324 12.5781C46.0527 11.2451 47.1221 10.1904 48.4404 9.41406C49.7734 8.62305 51.2163 8.22754 52.769 8.22754C54.3657 8.22754 55.8306 8.62305 57.1636 9.41406C58.4966 10.2197 59.5586 11.2891 60.3496 12.6221C61.1553 13.9551 61.5581 15.4492 61.5581 17.1045V20.7959C61.5581 20.9131 61.4995 20.9717 61.3823 20.9717H56.3286C56.2114 20.9717 56.1528 20.9131 56.1528 20.7959L56.1089 17.1045C56.1089 16.0498 55.7793 15.1929 55.1201 14.5337C54.4609 13.8745 53.6772 13.5449 52.769 13.5449C51.8462 13.5449 51.0552 13.8965 50.396 14.5996C49.7368 15.3027 49.4072 16.1377 49.4072 17.1045C49.4072 18.0859 49.6123 18.9062 50.0225 19.5654C50.4473 20.2246 51.2163 20.8545 52.3296 21.4551C52.4468 21.5137 52.7178 21.6602 53.1426 21.8945C53.5674 22.1289 54.0361 22.3926 54.5488 22.6855C55.0762 22.9639 55.5522 23.2202 55.9771 23.4546C56.4019 23.6743 56.6582 23.8062 56.7461 23.8501C58.2402 24.6851 59.4194 25.7104 60.2837 26.9263C61.1626 28.1421 61.6021 29.6362 61.6021 31.4087C61.6021 33.1226 61.2065 34.6606 60.4155 36.0229C59.6099 37.3853 58.5405 38.4619 57.2075 39.2529C55.8745 40.0439 54.395 40.4395 52.769 40.4395ZM69.9956 40H64.8979C64.7808 40 64.7222 39.9268 64.7222 39.7803L64.7661 8.86475C64.7661 8.74756 64.8394 8.68896 64.9858 8.68896H69.9956C70.1421 8.68896 70.2153 8.74756 70.2153 8.86475L70.1714 21.1035H76.917V8.86475C76.917 8.74756 76.9756 8.68896 77.0928 8.68896H82.1025C82.249 8.68896 82.3223 8.74756 82.3223 8.86475L82.4102 39.7803C82.4102 39.9268 82.3369 40 82.1904 40H77.1367C76.9902 40 76.917 39.9268 76.917 39.7803V26.5527H70.1714V39.7803C70.1714 39.9268 70.1128 40 69.9956 40ZM91.397 40H86.2993C86.1528 40 86.0796 39.9268 86.0796 39.7803L86.1235 8.86475C86.1235 8.74756 86.1821 8.68896 86.2993 8.68896H91.353C91.4702 8.68896 91.5288 8.74756 91.5288 8.86475L91.5728 39.7803C91.5728 39.9268 91.5142 40 91.397 40ZM103.855 40.4395C102.259 40.4395 100.787 40.0293 99.439 39.209C98.106 38.3887 97.0293 37.2974 96.209 35.9351C95.4033 34.5581 95.0005 33.0493 95.0005 31.4087L95.0444 17.1484C95.0444 15.4785 95.4473 13.9771 96.2529 12.644C97.0439 11.2964 98.1133 10.2197 99.4609 9.41406C100.809 8.59375 102.273 8.18359 103.855 8.18359C105.496 8.18359 106.968 8.58643 108.272 9.39209C109.59 10.1978 110.645 11.2817 111.436 12.644C112.242 13.9917 112.645 15.4932 112.645 17.1484L112.688 31.4087C112.688 33.0493 112.293 34.5508 111.502 35.9131C110.696 37.29 109.627 38.3887 108.294 39.209C106.961 40.0293 105.481 40.4395 103.855 40.4395ZM103.855 35.0122C104.764 35.0122 105.555 34.646 106.229 33.9136C106.902 33.1665 107.239 32.3315 107.239 31.4087L107.195 17.1484C107.195 16.1523 106.88 15.3101 106.25 14.6216C105.621 13.9331 104.822 13.5889 103.855 13.5889C102.933 13.5889 102.142 13.9258 101.482 14.5996C100.823 15.2734 100.494 16.123 100.494 17.1484V31.4087C100.494 32.3901 100.823 33.2397 101.482 33.9575C102.142 34.6606 102.933 35.0122 103.855 35.0122ZM120.994 40H116.49C116.255 40 116.138 39.8975 116.138 39.6924L116.094 9.04053C116.094 8.80615 116.211 8.68896 116.446 8.68896H120.511L128.113 26.4209L127.894 9.04053C127.894 8.80615 128.025 8.68896 128.289 8.68896H132.75C132.925 8.68896 133.013 8.80615 133.013 9.04053L133.057 39.7363C133.057 39.9121 132.984 40 132.837 40H128.882L121.082 23.4326L121.412 39.6484C121.412 39.8828 121.272 40 120.994 40Z" fill="white"/>
<path d="M166.063 40.4395C164.481 40.4395 163.017 40.0293 161.669 39.209C160.321 38.3887 159.245 37.29 158.439 35.9131C157.648 34.5215 157.252 33.0054 157.252 31.3647L157.34 8.86475C157.34 8.74756 157.399 8.68896 157.516 8.68896H162.57C162.687 8.68896 162.746 8.74756 162.746 8.86475V31.3647C162.746 32.3755 163.068 33.2397 163.712 33.9575C164.357 34.6606 165.141 35.0122 166.063 35.0122C167.03 35.0122 167.836 34.6606 168.48 33.9575C169.125 33.2397 169.447 32.3755 169.447 31.3647V8.86475C169.447 8.74756 169.506 8.68896 169.623 8.68896H174.677C174.794 8.68896 174.853 8.74756 174.853 8.86475L174.94 31.3647C174.94 33.02 174.545 34.5435 173.754 35.9351C172.948 37.312 171.879 38.4106 170.546 39.231C169.213 40.0366 167.719 40.4395 166.063 40.4395ZM186.125 40.4395C184.528 40.4395 183.056 40.0293 181.708 39.209C180.375 38.3887 179.306 37.2974 178.5 35.9351C177.709 34.5581 177.313 33.0493 177.313 31.4087V29.3433C177.313 29.1821 177.387 29.1016 177.533 29.1016H182.587C182.704 29.1016 182.763 29.1821 182.763 29.3433V31.4087C182.763 32.3901 183.092 33.2397 183.751 33.9575C184.411 34.6606 185.202 35.0122 186.125 35.0122C187.062 35.0122 187.86 34.6533 188.52 33.9355C189.179 33.2031 189.508 32.3608 189.508 31.4087C189.508 30.3101 188.791 29.3506 187.355 28.5303C187.121 28.3838 186.813 28.208 186.432 28.0029C186.066 27.7832 185.626 27.5342 185.114 27.2559C184.601 26.9775 184.103 26.7065 183.62 26.4429C183.136 26.1646 182.667 25.9009 182.213 25.6519C180.573 24.6851 179.35 23.4766 178.544 22.0264C177.753 20.5615 177.357 18.9209 177.357 17.1045C177.357 15.4346 177.768 13.9258 178.588 12.5781C179.408 11.2451 180.478 10.1904 181.796 9.41406C183.129 8.62305 184.572 8.22754 186.125 8.22754C187.721 8.22754 189.186 8.62305 190.519 9.41406C191.852 10.2197 192.914 11.2891 193.705 12.6221C194.511 13.9551 194.914 15.4492 194.914 17.1045V20.7959C194.914 20.9131 194.855 20.9717 194.738 20.9717H189.684C189.567 20.9717 189.508 20.9131 189.508 20.7959L189.464 17.1045C189.464 16.0498 189.135 15.1929 188.476 14.5337C187.816 13.8745 187.033 13.5449 186.125 13.5449C185.202 13.5449 184.411 13.8965 183.751 14.5996C183.092 15.3027 182.763 16.1377 182.763 17.1045C182.763 18.0859 182.968 18.9062 183.378 19.5654C183.803 20.2246 184.572 20.8545 185.685 21.4551C185.802 21.5137 186.073 21.6602 186.498 21.8945C186.923 22.1289 187.392 22.3926 187.904 22.6855C188.432 22.9639 188.908 23.2202 189.333 23.4546C189.757 23.6743 190.014 23.8062 190.102 23.8501C191.596 24.6851 192.775 25.7104 193.639 26.9263C194.518 28.1421 194.958 29.6362 194.958 31.4087C194.958 33.1226 194.562 34.6606 193.771 36.0229C192.965 37.3853 191.896 38.4619 190.563 39.2529C189.23 40.0439 187.75 40.4395 186.125 40.4395Z" fill="white"/>
<path d="M148.801 40H153.899C154.016 40 154.075 39.9268 154.075 39.7803L153.987 8.86475C153.987 8.74756 153.928 8.68896 153.811 8.68896H144.714C143.088 8.68896 141.594 9.08447 140.232 9.87549C138.87 10.6665 137.786 11.7285 136.98 13.0615C136.16 14.3945 135.75 15.9033 135.75 17.5879C135.75 18.6865 135.918 19.6826 136.255 20.5762C136.592 21.4697 136.987 22.2241 137.441 22.8394C137.881 23.4546 138.284 23.9087 138.65 24.2017C137.024 26.0034 136.211 28.1201 136.211 30.5518L136.167 39.7803C136.167 39.9268 136.24 40 136.387 40H141.484C141.602 40 141.66 39.9561 141.66 39.8682V30.5518C141.66 29.4678 142.041 28.5303 142.803 27.7393C143.564 26.9482 144.502 26.5527 145.615 26.5527H148.582L148.625 39.7803C148.625 39.9268 148.684 40 148.801 40ZM144.714 14.0723H148.582V21.1475H144.714C143.792 21.1475 142.971 20.8032 142.253 20.1147C141.521 19.4263 141.155 18.584 141.155 17.5879C141.155 16.6357 141.506 15.8154 142.209 15.127C142.913 14.4238 143.748 14.0723 144.714 14.0723Z" fill="#EA3B2E"/>
</g>
<defs>
<clipPath id="clip0_23_72">
<rect width="204" height="50" fill="white"/>
</clipPath>
</defs>
</svg>
